<?xml version="1.0" encoding="UTF-8"?>
<svg id="_레이어_1" data-name="레이어_1" xmlns="http://www.w3.org/2000/svg" version="1.1" viewBox="0 0 1763.4 1669.45">
  <defs>
    <style>
      .st0 { fill: #ffb500; }
      .st1 { fill: #fe8424; }
    </style>
  </defs>
  <path class="st0" d="M1422.94,629.2c83.65-7.67,166.86-18.79,249.1-36.11,25.36-5.34,33.9-38.21,13.17-53.77-.54-.4-1.08-.8-1.63-1.2L986.83,31.89c-58.53-42.52-137.78-42.52-196.31,0l-338.63,246.02c-19.25,13.99-15.79,43.73,6.19,52.85,233.74,97.07,469.74,189.12,710.05,268.46,82.06,27.09,168.76,37.86,254.82,29.97Z"/>
  <path class="st1" d="M558.59,454.26c-57.89-20.36-116.02-40.16-174.39-59.28-14.56-4.77-28.07,10.18-21.87,24.19,45.2,102.08,92.08,203.39,139.35,304.54,50.46,107.92,102.46,215.12,156.94,321.06,26.63,51.78,94.46,66.74,140.17,30.68,128.45-101.33,251.94-208.5,370.38-321.39,22.99-21.91,15.89-60.75-13.35-73.14-196.1-83.1-396.43-155.69-597.23-226.66Z"/>
  <path class="st0" d="M451.79,1669.15c-64.5-.21,14.05-107.73,24.56-120.24,310.27-369.22,385.27-427.88,674.91-679.94,25.24-21.97,51.24-42.52,79.91-60.06,15.04-9.18,30.54-9.73,42.56,5.56,16.94,21.55,16.67,58.15,20.59,83.9,5.42,35.67,10.85,71.34,16.27,107.02,28.98,190.63,61.4,380.62,90.75,571.13,3.37,21.88,6.83,54.96-6.87,74.44-10.04,14.27-26.43,17.68-42.77,17.83-128.94,1.22-258,.36-386.96.36-96.55,0-185.81-1.14-282.19,0-65.73.78-129.58-.86-195.32-.3-11.81.1-23.63.2-35.44.3Z"/>
  <path class="st1" d="M1520.38,1475.53c-9.64,30.31-53.48,27.29-59.06-4.02-1.67-9.4-3.26-18.45-4.75-27.03-36.46-215.5-67.61-431.89-90.77-649.23-3.85-36.08,20.73-69.15,56.31-76.23,102.3-20.35,205.24-36.37,309.43-42.36,21.16-1.22,36.82,19.52,30.39,39.72l-241.56,759.16Z"/>
  <path class="st1" d="M334.75,1581.03c85.94-101.36,169.51-204.75,248.43-311.64,32.66-44.24,39.46-102.36,17.76-152.88-19.29-44.92-39.08-89.61-58.91-134.28-82.05-179.73-167.27-357.98-256.72-534.13-8.5-16.74-30.03-21.89-45.22-10.85l-183.8,133.54c-47.85,34.76-67.87,96.39-49.6,152.64l272.98,840.14c.98,3.01,2.06,5.95,3.24,8.84,8.73,21.37,36.92,26.23,51.85,8.62Z"/>
</svg>
